<svg width="800" height="600" viewBox="0 0 800 600" xmlns="http://www.w3.org/2000/svg">
    <!-- Background -->
    <rect x="0" y="0" width="800" height="600" fill="#f8f9fa"/>
    
    <!-- Medical Cross -->
    <g transform="translate(350, 250)">
        <rect x="-15" y="-50" width="30" height="100" fill="#e74c3c"/>
        <rect x="-50" y="-15" width="100" height="30" fill="#e74c3c"/>
    </g>
    
    <!-- Pills -->
    <g transform="translate(200, 200)">
        <ellipse cx="0" cy="0" rx="40" ry="20" fill="#3498db"/>
        <line x1="-40" y1="0" x2="40" y2="0" stroke="white" stroke-width="2"/>
    </g>
    
    <g transform="translate(600, 300)">
        <ellipse cx="0" cy="0" rx="30" ry="15" fill="#2ecc71"/>
        <line x1="-30" y1="0" x2="30" y2="0" stroke="white" stroke-width="2"/>
    </g>
    
    <!-- Medical Icons -->
    <g transform="translate(450, 400)">
        <circle cx="0" cy="0" r="25" fill="#f1c40f"/>
        <path d="M-10,-10 L10,10 M-10,10 L10,-10" stroke="white" stroke-width="4"/>
    </g>
    
    <!-- Decorative Circles -->
    <circle cx="100" cy="100" r="50" fill="#ecf0f1"/>
    <circle cx="700" cy="500" r="40" fill="#ecf0f1"/>
    
    <!-- Abstract Lines -->
    <path d="M0,300 Q200,250 400,300 T800,300" stroke="#bdc3c7" fill="none" stroke-width="2"/>
    <path d="M0,320 Q200,270 400,320 T800,320" stroke="#bdc3c7" fill="none" stroke-width="2"/>
</svg>
